<svg width="24" height="24" viewBox="0 0 24 24" fill="none" xmlns="http://www.w3.org/2000/svg">
<path d="M19.772 22.2001C19.772 22.5561 19.6666 22.9041 19.4691 23.2001C19.2716 23.4961 18.9908 23.7268 18.6624 23.863C18.334 23.9992 17.9726 24.0349 17.6239 23.9654C17.2752 23.896 16.9549 23.7246 16.7036 23.4728C16.4522 23.2211 16.281 22.9004 16.2116 22.5512C16.1423 22.2021 16.1779 21.8402 16.3139 21.5113C16.45 21.1824 16.6803 20.9013 16.9759 20.7035C17.2715 20.5057 17.619 20.4001 17.9745 20.4001C18.4513 20.4001 18.9084 20.5898 19.2455 20.9273C19.5826 21.2649 19.772 21.7227 19.772 22.2001ZM10.7848 20.4001C10.4293 20.4001 10.0817 20.5057 9.78615 20.7035C9.49056 20.9013 9.26017 21.1824 9.12413 21.5113C8.98808 21.8402 8.95249 22.2021 9.02184 22.5512C9.0912 22.9004 9.26239 23.2211 9.51377 23.4728C9.76514 23.7246 10.0854 23.896 10.4341 23.9654C10.7828 24.0349 11.1442 23.9992 11.4726 23.863C11.801 23.7268 12.0818 23.4961 12.2793 23.2001C12.4768 22.9041 12.5822 22.5561 12.5822 22.2001C12.5822 21.7227 12.3928 21.2649 12.0557 20.9273C11.7187 20.5898 11.2615 20.4001 10.7848 20.4001ZM15.2304 9.2525L20.0236 4.45266C20.2493 4.2267 20.376 3.92024 20.376 3.60068C20.376 3.28113 20.2493 2.97467 20.0236 2.74871C19.798 2.52275 19.492 2.39581 19.1728 2.39581C18.8537 2.39581 18.5477 2.52275 18.3221 2.74871L14.3796 6.70858L12.8338 5.14863C12.6082 4.92268 12.3022 4.79574 11.9831 4.79574C11.6639 4.79574 11.3579 4.92268 11.1323 5.14863C10.9066 5.37459 10.7799 5.68105 10.7799 6.00061C10.7799 6.32016 10.9066 6.62662 11.1323 6.85258L13.5289 9.2525C13.6403 9.36497 13.7728 9.45424 13.9188 9.51516C14.0648 9.57608 14.2215 9.60745 14.3796 9.60745C14.5378 9.60745 14.6945 9.57608 14.8405 9.51516C14.9865 9.45424 15.119 9.36497 15.2304 9.2525Z" fill="#ED8F03"/>
<path d="M19.4364 18.0002H9.34673C8.79437 18.0143 8.2541 17.8369 7.81737 17.498C7.38064 17.1591 7.07427 16.6794 6.95013 16.1403L3.83455 2.40071H1.1983C0.88049 2.40071 0.575698 2.27428 0.350973 2.04925C0.126249 1.82421 0 1.519 0 1.20075C0 0.882496 0.126249 0.577282 0.350973 0.352245C0.575698 0.127209 0.88049 0.000784963 1.1983 0.000784963H3.83455C4.38691 -0.0133607 4.92718 0.164051 5.36391 0.502988C5.80065 0.841926 6.10701 1.32157 6.23115 1.86072L9.34673 15.6003H19.4364L21.5694 6.91256C21.6456 6.59431 21.845 6.31944 22.1237 6.14841C22.4024 5.97738 22.7375 5.92421 23.0553 6.00059C23.3731 6.07697 23.6476 6.27665 23.8183 6.55569C23.9891 6.83474 24.0422 7.17029 23.966 7.48854L21.797 16.1883C21.6649 16.7124 21.3598 17.1765 20.9314 17.5053C20.5029 17.8342 19.9762 18.0085 19.4364 18.0002Z" fill="#011627"/>
</svg>
